<svg width="40" height="40" viewBox="0 0 40 40" fill="none" xmlns="http://www.w3.org/2000/svg">
<path d="M27.7296 20.9836C28.3767 20.9836 28.9428 21.3115 29.4281 21.9672C29.9133 22.623 30.2484 23.3333 30.4333 24.0984C30.7568 25.2459 30.8608 26.4208 30.7452 27.6229C30.6297 28.8251 30.2022 29.918 29.4627 30.9016C28.9544 31.5574 28.3767 31.8852 27.7296 31.8852C27.0364 31.8852 26.4471 31.5574 25.9619 30.9016C25.4766 30.2459 25.1184 29.5355 24.8873 28.7705C24.6563 27.6229 24.5985 26.4481 24.714 25.2459C24.8296 24.0437 25.234 22.9508 25.9272 21.9672C26.4818 21.3115 27.0826 20.9836 27.7296 20.9836ZM12.3397 20.9836C12.9867 20.9836 13.5529 21.3115 14.0381 21.9672C14.5234 22.623 14.8816 23.3333 15.1127 24.0984C15.3899 25.2459 15.4708 26.4208 15.3553 27.6229C15.2397 28.8251 14.8122 29.918 14.0728 30.9016C13.5644 31.5574 12.9867 31.8852 12.3397 31.8852C11.6464 31.8852 11.0572 31.5574 10.5719 30.9016C10.0867 30.2459 9.72848 29.5355 9.4974 28.7705C9.26632 27.6229 9.20855 26.4481 9.32409 25.2459C9.43963 24.0437 9.84402 22.9508 10.5373 21.9672C11.0919 21.3115 11.6927 20.9836 12.3397 20.9836ZM36.7418 10.9836C38.9139 13.9344 40 17.7049 40 22.2951C40 26.2295 39.5147 29.3716 38.5442 31.7213C37.8972 33.1421 37.0422 34.3852 35.9792 35.4508C34.9162 36.5164 33.7839 37.3224 32.5823 37.8689C31.9815 38.1421 31.346 38.4016 30.6759 38.6475C30.0058 38.8934 29.2779 39.0984 28.4922 39.2623C27.7065 39.4262 26.9786 39.5492 26.3085 39.6311C25.6384 39.7131 25.0029 39.7814 24.4021 39.8361C23.8013 39.8907 23.1658 39.9317 22.4957 39.959C21.8255 39.9863 21.1207 40 20.3813 40H18.5789L16.9844 39.918L15.3206 39.7951L13.4489 39.5902C12.201 39.4262 10.9763 39.1257 9.7747 38.6885C8.11092 38.1421 6.50491 37.3224 4.95667 36.2295C3.40843 35.1366 2.26459 33.6339 1.52513 31.7213C0.508377 29.3716 0 26.2295 0 22.2951C0 17.8142 1.08608 14.0437 3.25823 10.9836C2.84229 9.45355 2.63432 7.86885 2.63432 6.22951C2.63432 4.04372 3.05026 1.96721 3.88215 0C5.63836 0 7.14038 0.382514 8.38822 1.14754C9.08146 1.53005 9.7978 2.0082 10.5373 2.58197C11.2767 3.15574 12.0855 3.82514 12.9636 4.59016C15.3206 3.93443 17.7932 3.60656 20.3813 3.60656C22.6921 3.60656 24.9336 3.9071 27.1057 4.5082C28.7233 2.97814 30.2253 1.8306 31.6118 1.06557C32.8596 0.355191 34.3847 0 36.1872 0C36.9728 2.02186 37.3657 4.09836 37.3657 6.22951C37.3657 7.86885 37.1577 9.45355 36.7418 10.9836ZM31.8891 33.7705C32.6748 33.0055 33.3218 32.0082 33.8302 30.7787C34.3385 29.5492 34.5927 28.1148 34.5927 26.4754C34.5927 24.1803 34.0381 22.2404 32.9289 20.6557C31.9122 19.071 30.4333 18.2787 28.4922 18.2787C28.1225 18.2787 27.5563 18.3197 26.7938 18.4016C26.0312 18.4836 25.026 18.6339 23.7782 18.8525C23.2236 18.9617 22.6228 19.0437 21.9757 19.0984C21.3287 19.153 20.6817 19.1803 20.0347 19.1803C19.3414 19.1803 18.6713 19.153 18.0243 19.0984C17.3772 19.0437 16.7764 18.9617 16.2218 18.8525C15.0202 18.6339 14.0381 18.4836 13.2756 18.4016C12.513 18.3197 11.9469 18.2787 11.5771 18.2787C9.63605 18.2787 8.13403 19.071 7.07106 20.6557C5.96187 22.2404 5.40728 24.1803 5.40728 26.4754C5.40728 28.1148 5.66147 29.5492 6.16984 30.7787C6.67822 32.0082 7.32525 33.0055 8.11092 33.7705C8.94281 34.4809 9.91335 35.0273 11.0225 35.4098C12.2241 35.847 13.3564 36.1339 14.4194 36.2705C15.4824 36.4071 16.6609 36.4754 17.9549 36.4754H22.0451C23.3853 36.4754 24.5754 36.4071 25.6153 36.2705C26.6551 36.1339 27.7759 35.847 28.9775 35.4098C30.0867 35.0273 31.0572 34.4809 31.8891 33.7705Z" fill="black"/>
</svg>
