<?xml version="1.0" encoding="UTF-8"?>
<!DOCTYPE svg PUBLIC "-//W3C//DTD SVG 1.1//EN" "http://www.w3.org/Graphics/SVG/1.1/DTD/svg11.dtd">
<!-- Creator: CorelDRAW -->
<svg xmlns="http://www.w3.org/2000/svg" xml:space="preserve" width="2048px" height="2048px" style="shape-rendering:geometricPrecision; text-rendering:geometricPrecision; image-rendering:optimizeQuality; fill-rule:evenodd; clip-rule:evenodd"
viewBox="0 0 2048 2048"
 xmlns:xlink="http://www.w3.org/1999/xlink">
 <defs>
  <style type="text/css">
   <![CDATA[
    .fil0 {fill:#795548}
    .fil2 {fill:#FFFFFE}
    .fil1 {fill:#FFFFFE;fill-rule:nonzero}
   ]]>
  </style>
 </defs>
 <g id="Layer_x0020_1">
  <metadata id="CorelCorpID_0Corel-Layer"/>
  <circle class="fil0" cx="1024" cy="1024" r="1024"/>
  <g id="_374922504">
   <path id="_374923224" class="fil1" d="M898.713 748.117l250.573 0 0 -65.8477c0,-0.172441 -0.0874016,-0.346063 -0.226772,-0.485433 -0.13937,-0.13937 -0.312992,-0.226772 -0.485433,-0.226772l-249.149 0c-0.172441,0 -0.346063,0.0874016 -0.485433,0.226772 -0.13937,0.13937 -0.226772,0.312992 -0.226772,0.485433l0 65.8477zm273.431 45.7146l-296.289 0c-12.6236,0 -22.8579,-10.2343 -22.8579,-22.8567l0 -88.7056c0,-12.7925 5.21693,-24.404 13.6205,-32.8075 8.40237,-8.40355 20.015,-13.6205 32.8075,-13.6205l249.149 0c12.7925,0 24.4051,5.21693 32.8075,13.6205 8.40355,8.40355 13.6205,20.015 13.6205,32.8075l0 88.7056c0,12.6225 -10.2343,22.8567 -22.8579,22.8567z"/>
   <g>
    <path id="_374923824" class="fil1" d="M668.957 740.773c0,-12.6236 -10.2343,-22.8579 -22.8579,-22.8579 -12.6236,0 -22.8579,10.2343 -22.8579,22.8579l0 25.6606c0,12.6225 10.2343,22.8567 22.8579,22.8567 12.6236,0 22.8579,-10.2343 22.8579,-22.8567l0 -25.6606z"/>
    <path id="_374923632" class="fil1" d="M1424.76 740.773c0,-12.6236 -10.2343,-22.8579 -22.8579,-22.8579 -12.6236,0 -22.8579,10.2343 -22.8579,22.8579l0 25.6606c0,12.6225 10.2343,22.8567 22.8579,22.8567 12.6236,0 22.8579,-10.2343 22.8579,-22.8567l0 -25.6606z"/>
   </g>
   <path id="_374923248" class="fil2" d="M778.284 1080.14c0,-67.8497 27.5032,-129.28 71.9693,-173.745 44.465,-44.4662 105.895,-71.9693 173.745,-71.9693 67.8508,0 129.28,27.5032 173.746,71.9693 44.465,44.465 71.9705,105.895 71.9705,173.745 0,67.8508 -27.5044,129.28 -71.9705,173.746 -44.4662,44.4662 -105.895,71.9693 -173.746,71.9693 -67.8497,0 -129.28,-27.5044 -173.745,-71.9693 -44.4662,-44.4662 -71.9693,-105.897 -71.9693,-173.746zm805.717 293.451l0 -586.901c0,-10.6323 -4.33347,-20.2795 -11.3126,-27.2587 -6.98032,-6.98032 -16.6276,-11.3126 -27.2599,-11.3126l-120.67 0 -45.7158 0 -184.041 0 -45.7158 0 -250.573 0 -45.7158 0 -184.041 0 -45.7158 0 -120.67 0c-10.6323,0 -20.2795,4.33229 -27.2599,11.3126 -6.97914,6.97914 -11.3126,16.6264 -11.3126,27.2587l0 586.901c0,10.6311 4.33347,20.2795 11.3126,27.2587 6.98032,6.97914 16.6276,11.3126 27.2599,11.3126l1042.86 0c10.6323,0 20.2795,-4.33347 27.2599,-11.3126 6.97914,-6.97914 11.3126,-16.6276 11.3126,-27.2587z"/>
   <path id="_374923920" class="fil2" d="M1018.29 949.55l0 -16.2461 23.7532 0 0 16.2461c17.4225,2.12953 31.2603,8.01142 41.5689,17.8158 10.252,9.80434 16.8059,22.9122 19.663,39.3272l-41.5122 5.43426c-2.52047,-12.9413 -9.0756,-21.6803 -19.7197,-26.2736l0 64.1445c26.2748,7.11497 44.2016,16.3583 53.6693,27.6756 9.52324,11.3162 14.2854,25.8248 14.2854,43.5851 0,19.774 -5.9941,36.4689 -17.9268,50.0268 -11.9894,13.6134 -28.6831,21.9047 -50.028,24.9851l0 30.7004 -23.7532 0 0 -29.915c-18.9354,-2.29725 -34.3418,-9.35552 -46.1622,-21.1772 -11.8205,-11.7638 -19.3276,-28.4587 -22.6323,-50.0268l42.8563 -4.59331c1.73622,8.73898 5.04213,16.3016 9.85985,22.6323 4.76221,6.33071 10.1398,10.924 16.0784,13.7811l0 -68.739c-21.4559,-6.16182 -37.1988,-15.4051 -47.2264,-27.8421 -9.97205,-12.437 -15.0142,-27.5079 -15.0142,-45.2103 0,-17.9268 5.65867,-32.9965 16.9748,-45.2091 11.3728,-12.2126 26.4425,-19.2166 45.2658,-21.1217zm217.143 130.588c0,-58.3855 -23.6658,-111.245 -61.9252,-149.504 -38.2607,-38.2595 -91.1198,-61.9252 -149.505,-61.9252 -58.3855,0 -111.245,23.6658 -149.504,61.9252 -38.2595,38.2595 -61.9252,91.1186 -61.9252,149.504 0,58.3855 23.6658,111.245 61.9252,149.505 38.2595,38.2583 91.1186,61.9252 149.504,61.9252 58.3867,0 111.245,-23.6658 149.505,-61.9252 38.2607,-38.2607 61.9252,-91.1198 61.9252,-149.505z"/>
   <path id="_374922672" class="fil2" d="M1018.29 1042.15l0 -56.8052c-6.49843,2.18504 -11.5961,5.93859 -15.4618,11.1473 -3.80906,5.26654 -5.71418,11.0929 -5.71418,17.4236 0,5.76969 1.73622,11.2039 5.20985,16.1339 3.52914,4.98662 8.85119,9.02009 15.9662,12.1004z"/>
   <path id="_374922864" class="fil2" d="M1062.1 1148.6c5.15433,-6.1063 7.73032,-13.2213 7.73032,-21.4559 0,-7.33938 -2.18504,-13.6134 -6.49843,-18.9354 -4.31339,-5.32205 -11.4284,-9.41221 -21.2882,-12.2126l0 63.9768c8.23583,-1.51299 14.902,-5.32205 20.0563,-11.3728z"/>
  </g>
 </g>
</svg>
