<svg width="40" height="40" viewBox="0 0 40 40" fill="none" xmlns="http://www.w3.org/2000/svg">
<path d="M0 11.1253H8.85106V40H0V11.1253ZM33.9574 12.9087C35.7163 13.8712 37.1631 15.3291 38.2979 17.2824C39.4326 19.2357 40 21.2314 40 23.2696V40H31.0638V23.2696C31.0638 22.8167 30.8936 22.3071 30.5532 21.741C30.2128 21.1748 29.9007 20.8068 29.617 20.6369C29.1631 20.3539 28.539 20.2123 27.7447 20.2123C26.9504 20.2123 26.3262 20.3255 25.8723 20.552L22.2128 22.3355V40H13.2766V11.1253H22.2128V12.4841C23.9716 11.6914 25.9574 11.3234 28.1702 11.38C30.383 11.4367 32.3121 11.9462 33.9574 12.9087ZM4.42553 0C5.67376 0 6.7234 0.424628 7.57447 1.27389C8.42553 2.12314 8.85106 3.17056 8.85106 4.41614C8.85106 5.66171 8.42553 6.72328 7.57447 7.60085C6.7234 8.47841 5.67376 8.9172 4.42553 8.9172C3.1773 8.9172 2.12766 8.47841 1.2766 7.60085C0.425532 6.72328 0 5.66171 0 4.41614C0 3.17056 0.425532 2.12314 1.2766 1.27389C2.12766 0.424628 3.1773 0 4.42553 0Z" fill="black"/>
</svg>
