<svg width="126" height="140" viewBox="0 0 126 140" fill="none" xmlns="http://www.w3.org/2000/svg">
<path d="M90.7129 107.03C91.8224 108.26 93.7193 108.358 94.9499 107.249C96.1804 106.139 96.2784 104.242 95.1689 103.012L90.7129 107.03ZM84.9412 96.1488L82.5425 97.9506L82.6232 98.058L82.7131 98.1578L84.9412 96.1488ZM95.1689 103.012L87.1692 94.1398L82.7131 98.1578L90.7129 107.03L95.1689 103.012ZM87.3398 94.347L74.458 77.1982L69.6607 80.8018L82.5425 97.9506L87.3398 94.347Z" fill="black"/>
<path d="M84 60C84 74.9117 71.464 87 56 87C40.536 87 28 74.9117 28 60C28 45.0883 40.536 33 56 33C71.464 33 84 45.0883 84 60ZM33.4305 60C33.4305 72.0196 43.5352 81.7634 56 81.7634C68.4648 81.7634 78.5695 72.0196 78.5695 60C78.5695 47.9804 68.4648 38.2366 56 38.2366C43.5352 38.2366 33.4305 47.9804 33.4305 60Z" fill="#251C1C"/>
<circle cx="43" cy="60" r="3" fill="#251C1C"/>
<circle cx="56" cy="60" r="3" fill="#251C1C"/>
<circle cx="69" cy="60" r="3" fill="#251C1C"/>
</svg>
