<svg width="37" height="43" viewBox="0 0 37 43" fill="none" xmlns="http://www.w3.org/2000/svg">
<g clip-path="url(#clip0_8_35)">
<path d="M31.6391 40.9617C32.7329 42.2207 34.6239 42.3631 35.8628 41.2797C37.1017 40.1963 37.2193 38.2974 36.1255 37.0383L31.6391 40.9617ZM29.7085 34.1957L27.2964 35.9445L27.3761 36.0547L27.4653 36.1574L29.7085 34.1957ZM36.1255 37.0383L31.9517 32.234L27.4653 36.1574L31.6391 40.9617L36.1255 37.0383ZM32.1206 32.4468L25.3997 23.1606L20.5754 26.6583L27.2964 35.9445L32.1206 32.4468Z" fill="black"/>
<path d="M29 14.5C29 22.5081 22.5081 29 14.5 29C6.49187 29 0 22.5081 0 14.5C0 6.49187 6.49187 0 14.5 0C22.5081 0 29 6.49187 29 14.5ZM2.81224 14.5C2.81224 20.955 8.04503 26.1878 14.5 26.1878C20.955 26.1878 26.1878 20.955 26.1878 14.5C26.1878 8.04503 20.955 2.81224 14.5 2.81224C8.04503 2.81224 2.81224 8.04503 2.81224 14.5Z" fill="#251C1C"/>
<circle cx="7.5" cy="14.5" r="1.5" fill="#251C1C"/>
<circle cx="14.5" cy="14.5" r="1.5" fill="#251C1C"/>
<circle cx="21.5" cy="14.5" r="1.5" fill="#251C1C"/>
</g>
<defs>
<clipPath id="clip0_8_35">
<rect width="37" height="43" fill="white"/>
</clipPath>
</defs>
</svg>
